<svg version="1.1" xmlns="http://www.w3.org/2000/svg" viewBox="0 0 484.68143273411897 361.7258117255951" width="484.68143273411897" height="361.7258117255951">
  <!-- svg-source:excalidraw -->
  
  <defs>
    <style class="style-fonts">
      @font-face {
        font-family: "Virgil";
        src: url("https://excalidraw.com/Virgil.woff2");
      }
      @font-face {
        font-family: "Cascadia";
        src: url("https://excalidraw.com/Cascadia.woff2");
      }
      @font-face {
        font-family: "Assistant";
        src: url("https://excalidraw.com/Assistant-Regular.woff2");
      }
    </style>
    
  </defs>
  <g stroke-linecap="round"><g transform="translate(17.68143273411897 257.99999999999955) rotate(0 214 -79)"><path d="M0 0 C15.67 -9.33, 62.5 -51.17, 94 -56 C125.5 -60.83, 165.83 -12, 189 -29 C212.17 -46, 217.83 -156.5, 233 -158 C248.17 -159.5, 259.5 -53.33, 280 -38 C300.5 -22.67, 331.33 -64.33, 356 -66 C380.67 -67.67, 416 -51, 428 -48 M0 0 C15.67 -9.33, 62.5 -51.17, 94 -56 C125.5 -60.83, 165.83 -12, 189 -29 C212.17 -46, 217.83 -156.5, 233 -158 C248.17 -159.5, 259.5 -53.33, 280 -38 C300.5 -22.67, 331.33 -64.33, 356 -66 C380.67 -67.67, 416 -51, 428 -48" stroke="#0437ff" stroke-width="2" fill="none"></path></g></g><mask></mask><g stroke-linecap="round"><g transform="translate(14.114956588062341 305.49999999999864) rotate(0 0 -147.74999999999932)"><path d="M0 0 C0 -49.25, 0 -246.25, 0 -295.5 M0 0 C0 -49.25, 0 -246.25, 0 -295.5" stroke="#1e1e1e" stroke-width="1" fill="none"></path></g><g transform="translate(14.114956588062341 305.49999999999864) rotate(0 0 -147.74999999999932)"><path d="M0 -295.5 L6.34 -281.91 L-6.34 -281.91 L0 -295.5" stroke="none" stroke-width="0" fill="#1e1e1e" fill-rule="evenodd"></path><path d="M0 -295.5 C1.42 -292.45, 2.84 -289.4, 6.34 -281.91 M0 -295.5 C2.35 -290.47, 4.69 -285.44, 6.34 -281.91 M6.34 -281.91 C2.69 -281.91, -0.96 -281.91, -6.34 -281.91 M6.34 -281.91 C1.58 -281.91, -3.18 -281.91, -6.34 -281.91 M-6.34 -281.91 C-4.71 -285.4, -3.08 -288.89, 0 -295.5 M-6.34 -281.91 C-4.43 -286.01, -2.51 -290.11, 0 -295.5 M0 -295.5 C0 -295.5, 0 -295.5, 0 -295.5 M0 -295.5 C0 -295.5, 0 -295.5, 0 -295.5" stroke="#1e1e1e" stroke-width="1" fill="none"></path></g></g><mask></mask><g stroke-linecap="round"><g transform="translate(10 304.313669285943) rotate(0 232.34071636705949 0)"><path d="M0 0 C77.45 0, 387.23 0, 464.68 0 M0 0 C77.45 0, 387.23 0, 464.68 0" stroke="#1e1e1e" stroke-width="1" fill="none"></path></g><g transform="translate(10 304.313669285943) rotate(0 232.34071636705949 0)"><path d="M464.68 0 L451.09 6.34 L451.09 -6.34 L464.68 0" stroke="none" stroke-width="0" fill="#1e1e1e" fill-rule="evenodd"></path><path d="M464.68 0 C461.07 1.68, 457.47 3.36, 451.09 6.34 M464.68 0 C461.16 1.64, 457.64 3.29, 451.09 6.34 M451.09 6.34 C451.09 3.8, 451.09 1.26, 451.09 -6.34 M451.09 6.34 C451.09 2, 451.09 -2.34, 451.09 -6.34 M451.09 -6.34 C454.8 -4.61, 458.5 -2.88, 464.68 0 M451.09 -6.34 C456.02 -4.04, 460.95 -1.74, 464.68 0 M464.68 0 C464.68 0, 464.68 0, 464.68 0 M464.68 0 C464.68 0, 464.68 0, 464.68 0" stroke="#1e1e1e" stroke-width="1" fill="none"></path></g></g><mask></mask><g stroke-linecap="round"><g transform="translate(198.32965248324808 231.87879556971848) rotate(0 0 36.0866467324322)"><path d="M0 0 C0 12.03, 0 60.14, 0 72.17 M0 0 C0 12.03, 0 60.14, 0 72.17" stroke="#1e1e1e" stroke-width="2" fill="none"></path></g></g><mask></mask><g stroke-linecap="round"><g transform="translate(309.6330448146048 225.79189130159784) rotate(0 0 39.34748830463968)"><path d="M0 0 C0 13.12, 0 65.58, 0 78.69 M0 0 C0 13.12, 0 65.58, 0 78.69" stroke="#1e1e1e" stroke-width="2" fill="none"></path></g></g><mask></mask><g stroke-linecap="round"><g transform="translate(413.11041737266305 198.83560097134705) rotate(0 0 52.71693875069127)"><path d="M0 0 C0 17.57, 0 87.86, 0 105.43 M0 0 C0 17.57, 0 87.86, 0 105.43" stroke="#1e1e1e" stroke-width="2" fill="none"></path></g></g><mask></mask><g stroke-linecap="round"><g transform="translate(92.24360666742336 205.2485893966891) rotate(0 0 49.238707740336395)"><path d="M0 0 C0 16.41, 0 82.06, 0 98.48 M0 0 C0 16.41, 0 82.06, 0 98.48" stroke="#1e1e1e" stroke-width="2" fill="none"></path></g></g><mask></mask><g stroke-linecap="round" transform="translate(86.33059678077393 201.40082209505272) rotate(0 5.652125391826644 5.65212539182653)"><path d="M11.3 5.65 C11.3 5.98, 11.28 6.31, 11.22 6.63 C11.16 6.96, 11.08 7.28, 10.96 7.59 C10.85 7.89, 10.71 8.19, 10.55 8.48 C10.38 8.76, 10.19 9.03, 9.98 9.29 C9.77 9.54, 9.54 9.77, 9.29 9.98 C9.03 10.19, 8.76 10.38, 8.48 10.55 C8.19 10.71, 7.89 10.85, 7.59 10.96 C7.28 11.08, 6.96 11.16, 6.63 11.22 C6.31 11.28, 5.98 11.3, 5.65 11.3 C5.32 11.3, 4.99 11.28, 4.67 11.22 C4.35 11.16, 4.03 11.08, 3.72 10.96 C3.41 10.85, 3.11 10.71, 2.83 10.55 C2.54 10.38, 2.27 10.19, 2.02 9.98 C1.77 9.77, 1.53 9.54, 1.32 9.29 C1.11 9.03, 0.92 8.76, 0.76 8.48 C0.59 8.19, 0.45 7.89, 0.34 7.59 C0.23 7.28, 0.14 6.96, 0.09 6.63 C0.03 6.31, 0 5.98, 0 5.65 C0 5.32, 0.03 4.99, 0.09 4.67 C0.14 4.35, 0.23 4.03, 0.34 3.72 C0.45 3.41, 0.59 3.11, 0.76 2.83 C0.92 2.54, 1.11 2.27, 1.32 2.02 C1.53 1.77, 1.77 1.53, 2.02 1.32 C2.27 1.11, 2.54 0.92, 2.83 0.76 C3.11 0.59, 3.41 0.45, 3.72 0.34 C4.03 0.23, 4.35 0.14, 4.67 0.09 C4.99 0.03, 5.32 0, 5.65 0 C5.98 0, 6.31 0.03, 6.63 0.09 C6.96 0.14, 7.28 0.23, 7.59 0.34 C7.89 0.45, 8.19 0.59, 8.48 0.76 C8.76 0.92, 9.03 1.11, 9.29 1.32 C9.54 1.53, 9.77 1.77, 9.98 2.02 C10.19 2.27, 10.38 2.54, 10.55 2.83 C10.71 3.11, 10.85 3.41, 10.96 3.72 C11.08 4.03, 11.16 4.35, 11.22 4.67 C11.28 4.99, 11.29 5.49, 11.3 5.65 C11.32 5.82, 11.32 5.49, 11.3 5.65" stroke="none" stroke-width="0" fill="#1e1e1e"></path><path d="M11.3 5.65 C11.3 5.98, 11.28 6.31, 11.22 6.63 C11.16 6.96, 11.08 7.28, 10.96 7.59 C10.85 7.89, 10.71 8.19, 10.55 8.48 C10.38 8.76, 10.19 9.03, 9.98 9.29 C9.77 9.54, 9.54 9.77, 9.29 9.98 C9.03 10.19, 8.76 10.38, 8.48 10.55 C8.19 10.71, 7.89 10.85, 7.59 10.96 C7.28 11.08, 6.96 11.16, 6.63 11.22 C6.31 11.28, 5.98 11.3, 5.65 11.3 C5.32 11.3, 4.99 11.28, 4.67 11.22 C4.35 11.16, 4.03 11.08, 3.72 10.96 C3.41 10.85, 3.11 10.71, 2.83 10.55 C2.54 10.38, 2.27 10.19, 2.02 9.98 C1.77 9.77, 1.53 9.54, 1.32 9.29 C1.11 9.03, 0.92 8.76, 0.76 8.48 C0.59 8.19, 0.45 7.89, 0.34 7.59 C0.23 7.28, 0.14 6.96, 0.09 6.63 C0.03 6.31, 0 5.98, 0 5.65 C0 5.32, 0.03 4.99, 0.09 4.67 C0.14 4.35, 0.23 4.03, 0.34 3.72 C0.45 3.41, 0.59 3.11, 0.76 2.83 C0.92 2.54, 1.11 2.27, 1.32 2.02 C1.53 1.77, 1.77 1.53, 2.02 1.32 C2.27 1.11, 2.54 0.92, 2.83 0.76 C3.11 0.59, 3.41 0.45, 3.72 0.34 C4.03 0.23, 4.35 0.14, 4.67 0.09 C4.99 0.03, 5.32 0, 5.65 0 C5.98 0, 6.31 0.03, 6.63 0.09 C6.96 0.14, 7.28 0.23, 7.59 0.34 C7.89 0.45, 8.19 0.59, 8.48 0.76 C8.76 0.92, 9.03 1.11, 9.29 1.32 C9.54 1.53, 9.77 1.77, 9.98 2.02 C10.19 2.27, 10.38 2.54, 10.55 2.83 C10.71 3.11, 10.85 3.41, 10.96 3.72 C11.08 4.03, 11.16 4.35, 11.22 4.67 C11.28 4.99, 11.29 5.49, 11.3 5.65 C11.32 5.82, 11.32 5.49, 11.3 5.65" stroke="#1e1e1e" stroke-width="1" fill="none"></path></g><g mask="url(#mask-OwC6zZecMB6-FP4_p5uon)" stroke-linecap="round"><g transform="translate(307.89392930942745 329.2258117255951) rotate(0 -54.7821384130898 0)"><path d="M0 0 C-18.26 0, -91.3 0, -109.56 0 M0 0 C-18.26 0, -91.3 0, -109.56 0" stroke="#1e1e1e" stroke-width="2" fill="none"></path></g><g transform="translate(307.89392930942745 329.2258117255951) rotate(0 -54.7821384130898 0)"><path d="M0 15 C0 11.06, 0 7.12, 0 0 M0 15 C0 11.69, 0 8.37, 0 0" stroke="#1e1e1e" stroke-width="2" fill="none"></path></g><g transform="translate(307.89392930942745 329.2258117255951) rotate(0 -54.7821384130898 0)"><path d="M0 -15 C0 -11.06, 0 -7.12, 0 0 M0 -15 C0 -11.69, 0 -8.37, 0 0" stroke="#1e1e1e" stroke-width="2" fill="none"></path></g><g transform="translate(307.89392930942745 329.2258117255951) rotate(0 -54.7821384130898 0)"><path d="M-109.56 -15 C-109.56 -11.06, -109.56 -7.12, -109.56 0 M-109.56 -15 C-109.56 -11.69, -109.56 -8.37, -109.56 0" stroke="#1e1e1e" stroke-width="2" fill="none"></path></g><g transform="translate(307.89392930942745 329.2258117255951) rotate(0 -54.7821384130898 0)"><path d="M-109.56 15 C-109.56 11.06, -109.56 7.12, -109.56 0 M-109.56 15 C-109.56 11.69, -109.56 8.37, -109.56 0" stroke="#1e1e1e" stroke-width="2" fill="none"></path></g></g><mask id="mask-OwC6zZecMB6-FP4_p5uon"><rect x="0" y="0" fill="#fff" width="517.458206135607" height="429.2258117255951"></rect><rect x="242.94512391177955" y="306.7258117255956" fill="#000" width="20.33333396911621" height="45" opacity="1"></rect></mask><g transform="translate(242.94512391177955 306.7258117255956) rotate(0 10.166666984558105 22.5)"><text x="10.166666984558105" y="31.536" font-family="Virgil, Segoe UI Emoji" font-size="36px" fill="#1e1e1e" text-anchor="middle" style="white-space: pre;" direction="ltr" dominant-baseline="alphabetic">t</text></g><g stroke-linecap="round" transform="translate(192.0688538336551 227.09622793048038) rotate(0 5.652125391826644 5.65212539182653)"><path d="M11.3 5.65 C11.3 5.98, 11.28 6.31, 11.22 6.63 C11.16 6.96, 11.08 7.28, 10.96 7.59 C10.85 7.89, 10.71 8.19, 10.55 8.48 C10.38 8.76, 10.19 9.03, 9.98 9.29 C9.77 9.54, 9.54 9.77, 9.29 9.98 C9.03 10.19, 8.76 10.38, 8.48 10.55 C8.19 10.71, 7.89 10.85, 7.59 10.96 C7.28 11.08, 6.96 11.16, 6.63 11.22 C6.31 11.28, 5.98 11.3, 5.65 11.3 C5.32 11.3, 4.99 11.28, 4.67 11.22 C4.35 11.16, 4.03 11.08, 3.72 10.96 C3.41 10.85, 3.11 10.71, 2.83 10.55 C2.54 10.38, 2.27 10.19, 2.02 9.98 C1.77 9.77, 1.53 9.54, 1.32 9.29 C1.11 9.03, 0.92 8.76, 0.76 8.48 C0.59 8.19, 0.45 7.89, 0.34 7.59 C0.23 7.28, 0.14 6.96, 0.09 6.63 C0.03 6.31, 0 5.98, 0 5.65 C0 5.32, 0.03 4.99, 0.09 4.67 C0.14 4.35, 0.23 4.03, 0.34 3.72 C0.45 3.41, 0.59 3.11, 0.76 2.83 C0.92 2.54, 1.11 2.27, 1.32 2.02 C1.53 1.77, 1.77 1.53, 2.02 1.32 C2.27 1.11, 2.54 0.92, 2.83 0.76 C3.11 0.59, 3.41 0.45, 3.72 0.34 C4.03 0.23, 4.35 0.14, 4.67 0.09 C4.99 0.03, 5.32 0, 5.65 0 C5.98 0, 6.31 0.03, 6.63 0.09 C6.96 0.14, 7.28 0.23, 7.59 0.34 C7.89 0.45, 8.19 0.59, 8.48 0.76 C8.76 0.92, 9.03 1.11, 9.29 1.32 C9.54 1.53, 9.77 1.77, 9.98 2.02 C10.19 2.27, 10.38 2.54, 10.55 2.83 C10.71 3.11, 10.85 3.41, 10.96 3.72 C11.08 4.03, 11.16 4.35, 11.22 4.67 C11.28 4.99, 11.29 5.49, 11.3 5.65 C11.32 5.82, 11.32 5.49, 11.3 5.65" stroke="none" stroke-width="0" fill="#1e1e1e"></path><path d="M11.3 5.65 C11.3 5.98, 11.28 6.31, 11.22 6.63 C11.16 6.96, 11.08 7.28, 10.96 7.59 C10.85 7.89, 10.71 8.19, 10.55 8.48 C10.38 8.76, 10.19 9.03, 9.98 9.29 C9.77 9.54, 9.54 9.77, 9.29 9.98 C9.03 10.19, 8.76 10.38, 8.48 10.55 C8.19 10.71, 7.89 10.85, 7.59 10.96 C7.28 11.08, 6.96 11.16, 6.63 11.22 C6.31 11.28, 5.98 11.3, 5.65 11.3 C5.32 11.3, 4.99 11.28, 4.67 11.22 C4.35 11.16, 4.03 11.08, 3.72 10.96 C3.41 10.85, 3.11 10.71, 2.83 10.55 C2.54 10.38, 2.27 10.19, 2.02 9.98 C1.77 9.77, 1.53 9.54, 1.32 9.29 C1.11 9.03, 0.92 8.76, 0.76 8.48 C0.59 8.19, 0.45 7.89, 0.34 7.59 C0.23 7.28, 0.14 6.96, 0.09 6.63 C0.03 6.31, 0 5.98, 0 5.65 C0 5.32, 0.03 4.99, 0.09 4.67 C0.14 4.35, 0.23 4.03, 0.34 3.72 C0.45 3.41, 0.59 3.11, 0.76 2.83 C0.92 2.54, 1.11 2.27, 1.32 2.02 C1.53 1.77, 1.77 1.53, 2.02 1.32 C2.27 1.11, 2.54 0.92, 2.83 0.76 C3.11 0.59, 3.41 0.45, 3.72 0.34 C4.03 0.23, 4.35 0.14, 4.67 0.09 C4.99 0.03, 5.32 0, 5.65 0 C5.98 0, 6.31 0.03, 6.63 0.09 C6.96 0.14, 7.28 0.23, 7.59 0.34 C7.89 0.45, 8.19 0.59, 8.48 0.76 C8.76 0.92, 9.03 1.11, 9.29 1.32 C9.54 1.53, 9.77 1.77, 9.98 2.02 C10.19 2.27, 10.38 2.54, 10.55 2.83 C10.71 3.11, 10.85 3.41, 10.96 3.72 C11.08 4.03, 11.16 4.35, 11.22 4.67 C11.28 4.99, 11.29 5.49, 11.3 5.65 C11.32 5.82, 11.32 5.49, 11.3 5.65" stroke="#1e1e1e" stroke-width="1" fill="none"></path></g><g stroke-linecap="round" transform="translate(303.9809194227778 216.66153489941553) rotate(0 5.652125391826644 5.65212539182653)"><path d="M11.3 5.65 C11.3 5.98, 11.28 6.31, 11.22 6.63 C11.16 6.96, 11.08 7.28, 10.96 7.59 C10.85 7.89, 10.71 8.19, 10.55 8.48 C10.38 8.76, 10.19 9.03, 9.98 9.29 C9.77 9.54, 9.54 9.77, 9.29 9.98 C9.03 10.19, 8.76 10.38, 8.48 10.55 C8.19 10.71, 7.89 10.85, 7.59 10.96 C7.28 11.08, 6.96 11.16, 6.63 11.22 C6.31 11.28, 5.98 11.3, 5.65 11.3 C5.32 11.3, 4.99 11.28, 4.67 11.22 C4.35 11.16, 4.03 11.08, 3.72 10.96 C3.41 10.85, 3.11 10.71, 2.83 10.55 C2.54 10.38, 2.27 10.19, 2.02 9.98 C1.77 9.77, 1.53 9.54, 1.32 9.29 C1.11 9.03, 0.92 8.76, 0.76 8.48 C0.59 8.19, 0.45 7.89, 0.34 7.59 C0.23 7.28, 0.14 6.96, 0.09 6.63 C0.03 6.31, 0 5.98, 0 5.65 C0 5.32, 0.03 4.99, 0.09 4.67 C0.14 4.35, 0.23 4.03, 0.34 3.72 C0.45 3.41, 0.59 3.11, 0.76 2.83 C0.92 2.54, 1.11 2.27, 1.32 2.02 C1.53 1.77, 1.77 1.53, 2.02 1.32 C2.27 1.11, 2.54 0.92, 2.83 0.76 C3.11 0.59, 3.41 0.45, 3.72 0.34 C4.03 0.23, 4.35 0.14, 4.67 0.09 C4.99 0.03, 5.32 0, 5.65 0 C5.98 0, 6.31 0.03, 6.63 0.09 C6.96 0.14, 7.28 0.23, 7.59 0.34 C7.89 0.45, 8.19 0.59, 8.48 0.76 C8.76 0.92, 9.03 1.11, 9.29 1.32 C9.54 1.53, 9.77 1.77, 9.98 2.02 C10.19 2.27, 10.38 2.54, 10.55 2.83 C10.71 3.11, 10.85 3.41, 10.96 3.72 C11.08 4.03, 11.16 4.35, 11.22 4.67 C11.28 4.99, 11.29 5.49, 11.3 5.65 C11.32 5.82, 11.32 5.49, 11.3 5.65" stroke="none" stroke-width="0" fill="#1e1e1e"></path><path d="M11.3 5.65 C11.3 5.98, 11.28 6.31, 11.22 6.63 C11.16 6.96, 11.08 7.28, 10.96 7.59 C10.85 7.89, 10.71 8.19, 10.55 8.48 C10.38 8.76, 10.19 9.03, 9.98 9.29 C9.77 9.54, 9.54 9.77, 9.29 9.98 C9.03 10.19, 8.76 10.38, 8.48 10.55 C8.19 10.71, 7.89 10.85, 7.59 10.96 C7.28 11.08, 6.96 11.16, 6.63 11.22 C6.31 11.28, 5.98 11.3, 5.65 11.3 C5.32 11.3, 4.99 11.28, 4.67 11.22 C4.35 11.16, 4.03 11.08, 3.72 10.96 C3.41 10.85, 3.11 10.71, 2.83 10.55 C2.54 10.38, 2.27 10.19, 2.02 9.98 C1.77 9.77, 1.53 9.54, 1.32 9.29 C1.11 9.03, 0.92 8.76, 0.76 8.48 C0.59 8.19, 0.45 7.89, 0.34 7.59 C0.23 7.28, 0.14 6.96, 0.09 6.63 C0.03 6.31, 0 5.98, 0 5.65 C0 5.32, 0.03 4.99, 0.09 4.67 C0.14 4.35, 0.23 4.03, 0.34 3.72 C0.45 3.41, 0.59 3.11, 0.76 2.83 C0.92 2.54, 1.11 2.27, 1.32 2.02 C1.53 1.77, 1.77 1.53, 2.02 1.32 C2.27 1.11, 2.54 0.92, 2.83 0.76 C3.11 0.59, 3.41 0.45, 3.72 0.34 C4.03 0.23, 4.35 0.14, 4.67 0.09 C4.99 0.03, 5.32 0, 5.65 0 C5.98 0, 6.31 0.03, 6.63 0.09 C6.96 0.14, 7.28 0.23, 7.59 0.34 C7.89 0.45, 8.19 0.59, 8.48 0.76 C8.76 0.92, 9.03 1.11, 9.29 1.32 C9.54 1.53, 9.77 1.77, 9.98 2.02 C10.19 2.27, 10.38 2.54, 10.55 2.83 C10.71 3.11, 10.85 3.41, 10.96 3.72 C11.08 4.03, 11.16 4.35, 11.22 4.67 C11.28 4.99, 11.29 5.49, 11.3 5.65 C11.32 5.82, 11.32 5.49, 11.3 5.65" stroke="#1e1e1e" stroke-width="1" fill="none"></path></g><g stroke-linecap="round" transform="translate(408.3278497334252 192.4443600743425) rotate(0 5.652125391826644 5.65212539182653)"><path d="M11.3 5.65 C11.3 5.98, 11.28 6.31, 11.22 6.63 C11.16 6.96, 11.08 7.28, 10.96 7.59 C10.85 7.89, 10.71 8.19, 10.55 8.48 C10.38 8.76, 10.19 9.03, 9.98 9.29 C9.77 9.54, 9.54 9.77, 9.29 9.98 C9.03 10.19, 8.76 10.38, 8.48 10.55 C8.19 10.71, 7.89 10.85, 7.59 10.96 C7.28 11.08, 6.96 11.16, 6.63 11.22 C6.31 11.28, 5.98 11.3, 5.65 11.3 C5.32 11.3, 4.99 11.28, 4.67 11.22 C4.35 11.16, 4.03 11.08, 3.72 10.96 C3.41 10.85, 3.11 10.71, 2.83 10.55 C2.54 10.38, 2.27 10.19, 2.02 9.98 C1.77 9.77, 1.53 9.54, 1.32 9.29 C1.11 9.03, 0.92 8.76, 0.76 8.48 C0.59 8.19, 0.45 7.89, 0.34 7.59 C0.23 7.28, 0.14 6.96, 0.09 6.63 C0.03 6.31, 0 5.98, 0 5.65 C0 5.32, 0.03 4.99, 0.09 4.67 C0.14 4.35, 0.23 4.03, 0.34 3.72 C0.45 3.41, 0.59 3.11, 0.76 2.83 C0.92 2.54, 1.11 2.27, 1.32 2.02 C1.53 1.77, 1.77 1.53, 2.02 1.32 C2.27 1.11, 2.54 0.92, 2.83 0.76 C3.11 0.59, 3.41 0.45, 3.72 0.34 C4.03 0.23, 4.35 0.14, 4.67 0.09 C4.99 0.03, 5.32 0, 5.65 0 C5.98 0, 6.31 0.03, 6.63 0.09 C6.96 0.14, 7.28 0.23, 7.59 0.34 C7.89 0.45, 8.19 0.59, 8.48 0.76 C8.76 0.92, 9.03 1.11, 9.29 1.32 C9.54 1.53, 9.77 1.77, 9.98 2.02 C10.19 2.27, 10.38 2.54, 10.55 2.83 C10.71 3.11, 10.85 3.41, 10.96 3.72 C11.08 4.03, 11.16 4.35, 11.22 4.67 C11.28 4.99, 11.29 5.49, 11.3 5.65 C11.32 5.82, 11.32 5.49, 11.3 5.65" stroke="none" stroke-width="0" fill="#1e1e1e"></path><path d="M11.3 5.65 C11.3 5.98, 11.28 6.31, 11.22 6.63 C11.16 6.96, 11.08 7.28, 10.96 7.59 C10.85 7.89, 10.71 8.19, 10.55 8.48 C10.38 8.76, 10.19 9.03, 9.98 9.29 C9.77 9.54, 9.54 9.77, 9.29 9.98 C9.03 10.19, 8.76 10.38, 8.48 10.55 C8.19 10.71, 7.89 10.85, 7.59 10.96 C7.28 11.08, 6.96 11.16, 6.63 11.22 C6.31 11.28, 5.98 11.3, 5.65 11.3 C5.32 11.3, 4.99 11.28, 4.67 11.22 C4.35 11.16, 4.03 11.08, 3.72 10.96 C3.41 10.85, 3.11 10.71, 2.83 10.55 C2.54 10.38, 2.27 10.19, 2.02 9.98 C1.77 9.77, 1.53 9.54, 1.32 9.29 C1.11 9.03, 0.92 8.76, 0.76 8.48 C0.59 8.19, 0.45 7.89, 0.34 7.59 C0.23 7.28, 0.14 6.96, 0.09 6.63 C0.03 6.31, 0 5.98, 0 5.65 C0 5.32, 0.03 4.99, 0.09 4.67 C0.14 4.35, 0.23 4.03, 0.34 3.72 C0.45 3.41, 0.59 3.11, 0.76 2.83 C0.92 2.54, 1.11 2.27, 1.32 2.02 C1.53 1.77, 1.77 1.53, 2.02 1.32 C2.27 1.11, 2.54 0.92, 2.83 0.76 C3.11 0.59, 3.41 0.45, 3.72 0.34 C4.03 0.23, 4.35 0.14, 4.67 0.09 C4.99 0.03, 5.32 0, 5.65 0 C5.98 0, 6.31 0.03, 6.63 0.09 C6.96 0.14, 7.28 0.23, 7.59 0.34 C7.89 0.45, 8.19 0.59, 8.48 0.76 C8.76 0.92, 9.03 1.11, 9.29 1.32 C9.54 1.53, 9.77 1.77, 9.98 2.02 C10.19 2.27, 10.38 2.54, 10.55 2.83 C10.71 3.11, 10.85 3.41, 10.96 3.72 C11.08 4.03, 11.16 4.35, 11.22 4.67 C11.28 4.99, 11.29 5.49, 11.3 5.65 C11.32 5.82, 11.32 5.49, 11.3 5.65" stroke="#1e1e1e" stroke-width="1" fill="none"></path></g></svg>